<?xml version="1.0" encoding="utf-8"?>
<!-- Generator: Adobe Illustrator 24.0.1, SVG Export Plug-In . SVG Version: 6.00 Build 0)  -->
<svg version="1.1" id="Layer_1" xmlns="http://www.w3.org/2000/svg" xmlns:xlink="http://www.w3.org/1999/xlink" x="0px" y="0px"
	 viewBox="0 0 512 512" style="enable-background:new 0 0 512 512;" xml:space="preserve">
<g>
	<path d="M457.6,28.4c0,150.5,0,300.7,0,451.2c-3.6,0.2-6.6,0.6-9.6,0.6c-127.6,0-255.1,0-382.7,0.2c-8.6,0-11-2.6-11-11
		c0.4-143.8,0.4-287.5,0.4-431.1c0-3,0.2-6.2,0.4-10C189.2,28.4,322.8,28.4,457.6,28.4z M431.7,134.2c-4.2,4.8-6.4,7-8.2,9.2
		c-7.4,8.8-13.9,18.1-21.9,26.1c-12.9,12.7-29.7,11.7-41.4-2.2c-5-6-8.4-13.5-13.3-19.5c-2.6-3.2-7.4-6.6-11.2-6.6
		c-23.3-0.6-46.8-0.6-70.1,0c-3.8,0-8.6,3.4-11.2,6.6c-5.8,6.8-9.6,15.1-15.5,21.7c-10.2,11.3-26.5,12.1-37.8,1.8
		c-5.2-4.8-9.4-11-13.5-16.7c-4.2-5.8-7.6-11.7-12.3-19.1c-3.6,5.2-6,8.8-8.4,12.3c-4.8,6.8-9,13.9-14.5,19.9
		c-12.1,13.1-26.7,14.1-39.8,2c-7.4-6.6-13.1-14.9-19.7-22.5c-3-3.4-6-6.8-11-12.1c0,38.4,0,73.9,0,109.1c4.8-2.2,7.4-4.8,9.8-7.6
		c6.8-7.8,12.9-16.1,20.3-23.3c12.7-12.5,27.5-12.3,40,0.6c6.4,6.6,11.2,14.7,16.5,22.3c2.4,3.2,4.4,6.6,7.4,11.2
		c4.4-7.2,8-13.1,11.5-18.9c19.5-31.9,38.4-33.1,61.5-4c5,6.4,10.2,12.5,15.7,19.7c8.2-11.2,14.3-21.1,21.9-29.9
		c12.7-14.7,32.5-13.5,44.4,2c4,5.2,7.6,10.8,10.6,16.5c3.2,6.2,7.6,8.6,14.7,8.4c22.3-0.4,44.8,0,67.1,0c3.2,0,6.6-0.4,8.8-0.6
		C431.7,205.6,431.7,171.4,431.7,134.2z M428.9,371.1c1-0.2,2-0.6,3-0.8c0-34.2,0-68.3,0-103.9c-19.7,0-39.6,1.4-59.3-0.4
		c-18.9-1.6-31.5,3-39.6,21.5c-6.4,14.3-21.1,20.7-33.3,15.1c-8.4-3.8-15.3-11.9-21.7-19.3c-5-5.8-8-13.3-12.5-21.5
		c-3.4,4.4-6,7.4-8.6,10.6c-5.4,6.8-10.2,13.9-15.9,20.3c-15.3,16.3-32.7,15.3-46.4-2.4c-4.6-6-8.4-12.5-12.5-18.9
		c-2-3-4.2-5.8-7-10c-3.6,5.2-6,8.8-8.6,12.3c-4.8,6.8-9,13.9-14.5,19.9c-12.1,13.1-26.9,13.9-40,1.8c-6.8-6.2-12.1-14.1-18.1-21.1
		c-3.4-4-7-7.8-12.1-13.7c0,38.4,0,73.7,0,111.7c11.5-12.7,20.3-23.7,30.5-33.5c13.7-12.9,28.9-11.7,41.2,2.6
		c4.8,5.8,8,12.9,12.9,18.5c3,3.4,8,6.6,12.1,6.8c20.7,0.6,41.2-0.4,61.9,0.6c11.2,0.6,17.5-3.2,22.9-12.7
		c4.2-7.6,10-15.1,16.9-20.3c12.9-9.4,29.1-4,40.6,12.1c5.8,8,10.8,16.3,17.1,26.1c6.2-9,11.2-16.7,16.5-24.1
		c16.7-23.5,35.2-24.3,53.8-2.6C415.6,354,422.2,362.6,428.9,371.1z M81.3,118.2c1,0.2,2,0.4,2.8,0.6c4.4-5.2,8.8-10.6,13.1-15.7
		c4.8-5.4,9.4-11.2,14.7-15.9c13.3-12.1,27.5-11.7,40,1.4c6.2,6.4,10.8,14.3,15.9,21.5c2.4,3.2,4.6,6.4,7.6,10.4
		c7.6-11,13.3-21.1,20.9-30.1c13.7-16.5,33.5-15.7,46.8,1c4,5.2,7.6,10.8,10.8,16.3c3.2,5.6,7.2,8.2,13.9,8.2
		c22.1-0.2,44,0.6,66.1,0.2c4.2,0,9.2-3.4,12.1-6.8c6.2-6.8,10.4-15.5,16.9-22.1c11-11.2,24.9-11.7,36.8-1.8
		c6.8,5.8,12.3,12.7,18.3,19.5c4,4.4,7.8,9,11.7,13.5c0.8-0.4,1.6-0.6,2.6-1c0-21.5,0-42.8,0-64.7c-117.1,0-234,0-350.8,0
		C81.3,75.4,81.3,96.9,81.3,118.2z M431.9,389.4c-0.8,0-1.8-0.2-2.6-0.2c-9.6,10.8-18.7,21.9-28.5,32.3c-7.8,8.4-18.5,11.2-28.3,5.6
		c-8.2-4.8-14.9-12.7-21.3-20.1c-5-5.8-8.4-12.9-13.1-20.5c-7.6,11.5-13.3,21.7-20.5,30.7c-13.9,17.3-34.8,16.5-48-1.2
		c-3.8-5.2-6.4-11.5-10.8-16.3c-3.4-3.6-8.4-7.4-12.9-7.4c-22.3-1-44.8-1-67.1-0.6c-4,0-8.8,3.2-11.3,6.2
		c-5.8,6.8-9.8,15.1-15.7,21.7c-11.2,12.3-26.9,13.3-39.4,2.2c-6.2-5.4-11.2-12.1-16.5-18.5c-4.4-5-8.4-10.4-12.5-15.5
		c-1.2,0.4-2.6,0.6-3.8,1c0,18.5,0.6,36.8-0.2,55.4c-0.4,9.6,3,11.3,11.7,11.3c110.1-0.2,220.2-0.2,330.1-0.2
		c3.6,0,7.4-0.4,10.4-0.6C431.9,432.4,431.9,410.9,431.9,389.4z M125.5,353.2c-9.8,19.1-6.2,37.4,0.4,57.7
		c11.7-11,18.7-22.3,16.9-37.2C141.6,363.7,136,356.8,125.5,353.2z M288.2,409.3c13.7-9,21.1-24.5,18.5-36.8
		c-2-10-7.8-16.3-18.9-18.5C280,372.7,283.2,390.4,288.2,409.3z M222.8,279.5c10.4-11.9,11.3-36.8-0.4-51
		c-12.1,4.8-16.9,12.9-15.9,28.3C207.1,269.8,212.3,276.7,222.8,279.5z M387.7,157.7c7.6-17.9,7-44.4-1-58.1
		C364.2,116.8,364.4,140.1,387.7,157.7z M387.7,351.8c-23.3,14.1-23.5,41.4-0.4,57.1C394.9,393,395.1,367.1,387.7,351.8z
		 M126.1,158.1c11.9-9.8,19.1-20.9,16.7-36c-1.6-9.6-7-16.7-16.5-20.1C117.5,117,117.3,137.7,126.1,158.1z M314.8,226.2
		c-21.1,9.6-27.1,35-14.1,50c1.8,2,9,1.4,11.9-0.6c2.8-1.8,5-7,4.8-10.8C317.4,252.4,316,240.1,314.8,226.2z M132.2,281.1
		c14.3-16.5,14.1-37.6-0.2-55.2C113.9,242.7,113.7,266.2,132.2,281.1z M226,157.1c4.6-19.7,5-38.4-1-57.3
		C200.1,116,200.3,142.7,226,157.1z"/>
</g>
</svg>
